<?xml version="1.0" encoding="utf-8"?>
<!-- Generator: Adobe Illustrator 24.1.2, SVG Export Plug-In . SVG Version: 6.00 Build 0)  -->
<svg version="1.1" id="Layer_1" xmlns="http://www.w3.org/2000/svg" xmlns:xlink="http://www.w3.org/1999/xlink" x="0px" y="0px"
	 viewBox="0 0 974.8 203" style="enable-background:new 0 0 974.8 203;" xml:space="preserve">
<style type="text/css">
	.st0{fill:none;}
	.st1{fill:#323232;}
	.st2{fill:#FFC905;}
	.st3{fill:url(#SVGID_1_);}
	.st4{fill:url(#SVGID_2_);}
</style>
<g>
	<rect x="0" class="st0" width="974.8" height="203"/>
	<g>
		<path class="st1" d="M267.7,97.5l-6.5-2.5c-2.5-0.9-4.4-1.7-5.8-2.4c-1.4-0.7-2.1-1.6-2.1-2.9c0-1.2,0.5-2.1,1.5-2.7
			c1-0.6,2.3-0.9,4.1-0.9c2,0,3.8,0.3,5.4,1c1.7,0.7,3.4,1.6,5.2,2.9l7-8.8c-2.5-2.5-5.3-4.3-8.4-5.4c-3.1-1.1-6.2-1.7-9.3-1.7
			c-2.9,0-5.6,0.4-8,1.3c-2.4,0.9-4.5,2.1-6.3,3.6c-1.7,1.5-3.1,3.2-4.1,5.2c-1,2-1.5,4.1-1.5,6.4c0,1.9,0.3,3.7,0.9,5.2
			c0.6,1.6,1.3,3,2.3,4.2s2.1,2.3,3.4,3.2c1.3,0.9,2.7,1.6,4.1,2.2l6.6,2.8c1.1,0.4,2.2,0.8,3,1.2c0.9,0.4,1.6,0.7,2.3,1.1
			c0.6,0.4,1.1,0.8,1.4,1.2c0.3,0.4,0.5,1,0.5,1.6c0,1.2-0.5,2.1-1.4,2.8c-1,0.7-2.5,1-4.6,1c-2,0-4.1-0.5-6.3-1.4
			c-2.2-1-4.3-2.2-6.2-3.7l-8,9.7c2.9,2.6,6.1,4.5,9.7,5.8c3.6,1.2,7.1,1.8,10.4,1.8c3.3,0,6.3-0.5,8.8-1.4c2.6-0.9,4.7-2.2,6.5-3.7
			c1.8-1.6,3.1-3.4,4.1-5.4c0.9-2.1,1.4-4.2,1.4-6.5c0-3.7-0.9-6.7-2.7-9.1C273.6,100.6,271,98.8,267.7,97.5z"/>
		<polygon class="st1" points="316.3,94.7 300.5,94.7 300.5,74.9 286.4,74.9 286.4,128.1 300.5,128.1 300.5,107 316.3,107 
			316.3,128.1 330.4,128.1 330.4,74.9 316.3,74.9 		"/>
		<path class="st1" d="M380.8,81c-2.2-2.3-4.8-4.1-7.8-5.3c-3.1-1.2-6.4-1.8-10.1-1.8c-3.7,0-7.1,0.6-10.1,1.8c-3,1.2-5.6,3-7.8,5.3
			c-2.2,2.3-3.8,5.2-5,8.6c-1.2,3.4-1.8,7.3-1.8,11.7c0,4.4,0.6,8.3,1.8,11.7c1.2,3.5,2.9,6.4,5,8.8c2.2,2.4,4.7,4.2,7.8,5.4
			c3,1.3,6.4,1.9,10.1,1.9c3.7,0,7-0.6,10.1-1.9c3.1-1.3,5.7-3.1,7.8-5.4c2.2-2.4,3.8-5.3,5-8.8c1.2-3.5,1.8-7.4,1.8-11.7
			c0-4.4-0.6-8.2-1.8-11.6C384.6,86.3,382.9,83.4,380.8,81z M370.5,112.8c-1.8,2.8-4.4,4.2-7.6,4.2c-3.2,0-5.7-1.4-7.6-4.2
			c-1.8-2.8-2.7-6.6-2.7-11.5s0.9-8.6,2.7-11.3c1.8-2.6,4.4-4,7.6-4c3.2,0,5.7,1.3,7.6,4c1.8,2.6,2.7,6.4,2.7,11.3
			S372.3,109.9,370.5,112.8z"/>
		<path class="st1" d="M430.9,78.7c-1.9-1.4-4.2-2.4-6.8-2.9c-2.6-0.6-5.3-0.9-8.1-0.9h-20.6v53.2h14.1v-16.9h6.5
			c2.8,0,5.5-0.4,8-1.1c2.6-0.7,4.8-1.9,6.8-3.4c2-1.5,3.5-3.4,4.7-5.8c1.2-2.3,1.8-5.2,1.8-8.4c0-3.3-0.6-6.1-1.7-8.4
			C434.4,81.9,432.9,80.1,430.9,78.7z M421.5,98.1c-1.3,1.3-3.4,2-6.2,2h-5.9V86h5.9c2.6,0,4.6,0.5,6.1,1.5c1.4,1,2.1,2.7,2.1,5.1
			C423.5,95,422.8,96.8,421.5,98.1z"/>
		<path class="st1" d="M479.8,78.7c-1.9-1.4-4.2-2.4-6.8-2.9c-2.6-0.6-5.3-0.9-8.1-0.9h-20.6v53.2h14.1v-16.9h6.5
			c2.8,0,5.5-0.4,8-1.1c2.6-0.7,4.8-1.9,6.8-3.4c2-1.5,3.5-3.4,4.7-5.8c1.2-2.3,1.8-5.2,1.8-8.4c0-3.3-0.6-6.1-1.7-8.4
			C483.2,81.9,481.7,80.1,479.8,78.7z M470.4,98.1c-1.3,1.3-3.4,2-6.2,2h-5.9V86h5.9c2.6,0,4.6,0.5,6.1,1.5c1.4,1,2.1,2.7,2.1,5.1
			C472.4,95,471.7,96.8,470.4,98.1z"/>
		<polygon class="st1" points="507.1,106.8 524.5,106.8 524.5,95 507.1,95 507.1,86.7 527.4,86.7 527.4,74.9 493.1,74.9 
			493.1,128.1 528.2,128.1 528.2,116.3 507.1,116.3 		"/>
		<path class="st1" d="M577.6,101.6c1.6-2.5,2.3-5.7,2.3-9.5c0-3.3-0.6-6.1-1.7-8.3c-1.1-2.2-2.7-4-4.6-5.3
			c-1.9-1.3-4.2-2.2-6.8-2.8c-2.6-0.5-5.3-0.8-8.1-0.8h-20.1v53.2h14.1v-17.8h5.4l9.2,17.8h15.7l-11.5-20.6
			C574,106.1,576.1,104.1,577.6,101.6z M557.7,99.1h-5.1V86h5.1c2.8,0,4.9,0.4,6.3,1.3c1.4,0.9,2.2,2.5,2.2,4.7
			C566.2,96.8,563.4,99.1,557.7,99.1z"/>
		<path class="st1" d="M593.8,71.1c-2.1,0-3.8,0.7-5.1,2c-1.3,1.4-2,3.2-2,5.5c0,2.1,0.7,3.7,2,4.9c1.4,1.2,3,1.8,5,1.8
			c0.4,0,0.7,0,0.8-0.1c0,2.5-0.7,4.5-2,6.2c-1.3,1.7-3.3,3.1-5.9,4.2l2.9,6.1c4.4-2.1,7.6-4.7,9.7-7.8c2.1-3.1,3.1-6.8,3.1-10.8
			c0-3.8-0.7-6.7-2.2-8.8C598.8,72.2,596.7,71.1,593.8,71.1z"/>
		<path class="st1" d="M641.5,97.5l-6.5-2.5c-2.5-0.9-4.4-1.7-5.8-2.4c-1.4-0.7-2.1-1.6-2.1-2.9c0-1.2,0.5-2.1,1.5-2.7
			c1-0.6,2.3-0.9,4.1-0.9c2,0,3.8,0.3,5.4,1c1.7,0.7,3.4,1.6,5.2,2.9l7-8.8c-2.5-2.5-5.3-4.3-8.4-5.4c-3.1-1.1-6.2-1.7-9.3-1.7
			c-2.9,0-5.6,0.4-8,1.3c-2.4,0.9-4.5,2.1-6.3,3.6c-1.7,1.5-3.1,3.2-4.1,5.2c-1,2-1.5,4.1-1.5,6.4c0,1.9,0.3,3.7,0.9,5.2
			c0.6,1.6,1.4,3,2.3,4.2c1,1.2,2.1,2.3,3.4,3.2c1.3,0.9,2.7,1.6,4.1,2.2l6.6,2.8c1.1,0.4,2.2,0.8,3,1.2c0.9,0.4,1.6,0.7,2.3,1.1
			c0.6,0.4,1.1,0.8,1.4,1.2c0.3,0.4,0.5,1,0.5,1.6c0,1.2-0.5,2.1-1.4,2.8c-1,0.7-2.5,1-4.6,1c-2,0-4.1-0.5-6.3-1.4
			c-2.2-1-4.3-2.2-6.2-3.7l-8,9.7c2.9,2.6,6.1,4.5,9.7,5.8c3.6,1.2,7.1,1.8,10.4,1.8c3.3,0,6.3-0.5,8.8-1.4c2.6-0.9,4.7-2.2,6.5-3.7
			c1.8-1.6,3.1-3.4,4.1-5.4c0.9-2.1,1.4-4.2,1.4-6.5c0-3.7-0.9-6.7-2.7-9.1C647.4,100.6,644.9,98.8,641.5,97.5z"/>
		<path class="st1" d="M712.6,97l-2.9,8.7h-0.3l-2.9-8.7L698,74.9h-14.6v53.2h12.9v-15.7c0-1.4-0.1-2.9-0.2-4.5
			c-0.1-1.6-0.3-3.3-0.4-5c-0.2-1.7-0.4-3.4-0.6-5c-0.2-1.6-0.4-3.1-0.6-4.4h0.3l4.3,12.4l7.4,17.9h5.2l7.4-17.9l4.4-12.4h0.3
			c-0.2,1.3-0.4,2.8-0.6,4.4c-0.2,1.6-0.4,3.3-0.6,5c-0.2,1.7-0.3,3.4-0.4,5c-0.1,1.6-0.2,3.1-0.2,4.5v15.7h13.1V74.9h-14.6
			L712.6,97z"/>
		<rect x="745.2" y="74.9" class="st1" width="14.1" height="53.2"/>
		<path class="st1" d="M799.1,90.3c0,1.6,0.1,3.3,0.2,5.1s0.3,3.5,0.5,5.3s0.4,3.5,0.6,5.2c0.2,1.7,0.4,3.2,0.6,4.7h-0.3l-5.1-12
			l-11.8-23.7h-14.4v53.2h13.4v-15.4c0-3.3-0.2-6.7-0.7-10.3c-0.4-3.6-0.8-6.9-1.1-10h0.3l5.1,11.9l11.8,23.8h14.4V74.9h-13.4V90.3z
			"/>
		<path class="st1" d="M863.6,89.2c-1.3-3.3-3.2-6.1-5.6-8.2c-2.4-2.1-5.3-3.7-8.6-4.7c-3.4-1-7.1-1.5-11.1-1.5h-15.7v53.2h16.5
			c3.8,0,7.4-0.5,10.6-1.6c3.2-1,6.1-2.6,8.4-4.8c2.4-2.2,4.2-5,5.5-8.3c1.3-3.4,2-7.4,2-12.1C865.6,96.6,865,92.6,863.6,89.2z
			 M850.2,108.9c-0.7,2-1.7,3.6-2.9,4.7c-1.2,1.1-2.7,2-4.4,2.4c-1.7,0.5-3.5,0.7-5.4,0.7h-0.8V86.2h0.8c1.9,0,3.7,0.2,5.4,0.6
			c1.7,0.4,3.2,1.2,4.4,2.3c1.2,1.1,2.2,2.6,2.9,4.6c0.7,2,1.1,4.5,1.1,7.6C851.2,104.4,850.9,106.9,850.2,108.9z"/>
		<g>
			<path class="st2" d="M176.6,101.5l-27.6-27.7c-3.8-3.8-9-6.2-14.7-6.2h-24.3c-0.4,0-0.7,0.3-0.7,0.7c5.8,0,11,2.3,14.7,6.1
				l39.9,39.8L176.6,101.5z"/>
			<g>
				<linearGradient id="SVGID_1_" gradientUnits="userSpaceOnUse" x1="140.5764" y1="120.3491" x2="155.2502" y2="105.6753">
					<stop  offset="0" style="stop-color:#FFCA05"/>
					<stop  offset="0.9909" style="stop-color:#F9AA19"/>
					<stop  offset="1" style="stop-color:#F9AA19"/>
				</linearGradient>
				<path class="st3" d="M123.9,128.5c-3.8,3.8-9,6.1-14.7,6.1c0,0.4,0.3,0.7,0.7,0.7h24.3c5.8,0,11-2.4,14.7-6.2l14.8-14.8
					l-12.8-12.8L123.9,128.5z"/>
			</g>
			<path class="st2" d="M218.3,101.5l-27.6-27.7c-3.8-3.8-9-6.2-14.7-6.2h-24.3c-0.4,0-0.7,0.3-0.7,0.7c5.8,0,11,2.3,14.7,6.1
				l39.9,39.8L218.3,101.5z"/>
			<g>
				<linearGradient id="SVGID_2_" gradientUnits="userSpaceOnUse" x1="182.1204" y1="120.4921" x2="196.8523" y2="105.7602">
					<stop  offset="0" style="stop-color:#FFCA05"/>
					<stop  offset="0.9909" style="stop-color:#F9AA19"/>
					<stop  offset="1" style="stop-color:#F9AA19"/>
				</linearGradient>
				<path class="st4" d="M165.6,128.5c-3.8,3.8-9,6.1-14.7,6.1c0,0.4,0.3,0.7,0.7,0.7h24.3c5.8,0,11-2.4,14.7-6.2l14.8-14.8
					l-12.8-12.8L165.6,128.5z"/>
			</g>
		</g>
	</g>
</g>
</svg>
